<mxfile host="Electron" modified="2024-06-29T08:54:22.320Z" agent="Mozilla/5.0 (Windows NT 10.0; Win64; x64) AppleWebKit/537.36 (KHTML, like Gecko) draw.io/24.5.3 Chrome/124.0.6367.207 Electron/30.0.6 Safari/537.36" etag="2nPefC-dPptEcY3sJYhQ" version="24.5.3" type="device">
  <diagram name="第 1 页" id="sOTPfO5DnzmEnrTaSMXJ">
    <mxGraphModel dx="1036" dy="614" grid="0" gridSize="10" guides="1" tooltips="1" connect="1" arrows="1" fold="1" page="1" pageScale="1" pageWidth="827" pageHeight="1169" math="0" shadow="0">
      <root>
        <mxCell id="0" />
        <mxCell id="1" parent="0" />
        <mxCell id="ylhRf2WJMnwCqdoJnjB7-44" style="edgeStyle=orthogonalEdgeStyle;rounded=0;orthogonalLoop=1;jettySize=auto;html=1;entryX=0;entryY=0.5;entryDx=0;entryDy=0;curved=1;exitX=0.75;exitY=0;exitDx=0;exitDy=0;endArrow=none;endFill=0;" parent="1" source="ylhRf2WJMnwCqdoJnjB7-25" target="ylhRf2WJMnwCqdoJnjB7-28" edge="1">
          <mxGeometry relative="1" as="geometry" />
        </mxCell>
        <mxCell id="ylhRf2WJMnwCqdoJnjB7-46" style="edgeStyle=orthogonalEdgeStyle;rounded=0;orthogonalLoop=1;jettySize=auto;html=1;entryX=0;entryY=0.5;entryDx=0;entryDy=0;curved=1;exitX=0.75;exitY=1;exitDx=0;exitDy=0;endArrow=none;endFill=0;" parent="1" source="ylhRf2WJMnwCqdoJnjB7-25" target="ylhRf2WJMnwCqdoJnjB7-27" edge="1">
          <mxGeometry relative="1" as="geometry" />
        </mxCell>
        <mxCell id="ylhRf2WJMnwCqdoJnjB7-25" value="普通攻击" style="rounded=1;whiteSpace=wrap;html=1;fillColor=#dae8fc;strokeColor=#6c8ebf;" parent="1" vertex="1">
          <mxGeometry x="62" y="762" width="75" height="33" as="geometry" />
        </mxCell>
        <mxCell id="ylhRf2WJMnwCqdoJnjB7-42" style="edgeStyle=orthogonalEdgeStyle;rounded=0;orthogonalLoop=1;jettySize=auto;html=1;endArrow=classic;endFill=1;entryX=0.5;entryY=1;entryDx=0;entryDy=0;dashed=1;dashPattern=8 8;fillColor=#dae8fc;strokeColor=#6c8ebf;" parent="1" source="ylhRf2WJMnwCqdoJnjB7-27" target="ylhRf2WJMnwCqdoJnjB7-28" edge="1">
          <mxGeometry relative="1" as="geometry">
            <mxPoint x="231" y="758.4137931034484" as="targetPoint" />
          </mxGeometry>
        </mxCell>
        <mxCell id="ylhRf2WJMnwCqdoJnjB7-48" style="edgeStyle=orthogonalEdgeStyle;rounded=0;orthogonalLoop=1;jettySize=auto;html=1;endArrow=none;endFill=0;" parent="1" source="ylhRf2WJMnwCqdoJnjB7-27" edge="1">
          <mxGeometry relative="1" as="geometry">
            <mxPoint x="386" y="862" as="targetPoint" />
          </mxGeometry>
        </mxCell>
        <mxCell id="ylhRf2WJMnwCqdoJnjB7-27" value="&lt;font face=&quot;Comic Sans MS&quot;&gt;蓄力&lt;/font&gt;" style="rounded=1;whiteSpace=wrap;html=1;fillColor=#ffe6cc;strokeColor=#d79b00;" parent="1" vertex="1">
          <mxGeometry x="199" y="849" width="64" height="27" as="geometry" />
        </mxCell>
        <mxCell id="ylhRf2WJMnwCqdoJnjB7-63" style="edgeStyle=orthogonalEdgeStyle;rounded=0;orthogonalLoop=1;jettySize=auto;html=1;endArrow=none;endFill=0;" parent="1" source="ylhRf2WJMnwCqdoJnjB7-28" edge="1">
          <mxGeometry relative="1" as="geometry">
            <mxPoint x="291.7241716056035" y="702.5" as="targetPoint" />
          </mxGeometry>
        </mxCell>
        <mxCell id="ylhRf2WJMnwCqdoJnjB7-69" style="edgeStyle=orthogonalEdgeStyle;rounded=0;orthogonalLoop=1;jettySize=auto;html=1;endArrow=none;endFill=0;" parent="1" source="ylhRf2WJMnwCqdoJnjB7-28" edge="1">
          <mxGeometry relative="1" as="geometry">
            <mxPoint x="389.9310429014008" y="702.5" as="targetPoint" />
          </mxGeometry>
        </mxCell>
        <mxCell id="ylhRf2WJMnwCqdoJnjB7-28" value="&lt;font face=&quot;Comic Sans MS&quot;&gt;获得灵魂&lt;/font&gt;" style="rounded=1;whiteSpace=wrap;html=1;fillColor=#ffe6cc;strokeColor=#d79b00;" parent="1" vertex="1">
          <mxGeometry x="199" y="689" width="64" height="27" as="geometry" />
        </mxCell>
        <mxCell id="ylhRf2WJMnwCqdoJnjB7-72" style="edgeStyle=orthogonalEdgeStyle;rounded=0;orthogonalLoop=1;jettySize=auto;html=1;entryX=0;entryY=0.5;entryDx=0;entryDy=0;curved=1;exitX=0.522;exitY=-0.019;exitDx=0;exitDy=0;exitPerimeter=0;dashed=1;fillColor=#dae8fc;strokeColor=#6c8ebf;" parent="1" source="ylhRf2WJMnwCqdoJnjB7-41" target="ylhRf2WJMnwCqdoJnjB7-50" edge="1">
          <mxGeometry relative="1" as="geometry" />
        </mxCell>
        <mxCell id="ylhRf2WJMnwCqdoJnjB7-73" style="edgeStyle=orthogonalEdgeStyle;rounded=0;orthogonalLoop=1;jettySize=auto;html=1;entryX=0;entryY=0.5;entryDx=0;entryDy=0;curved=1;exitX=0.533;exitY=0.979;exitDx=0;exitDy=0;exitPerimeter=0;dashed=1;fillColor=#dae8fc;strokeColor=#6c8ebf;" parent="1" source="ylhRf2WJMnwCqdoJnjB7-41" target="ylhRf2WJMnwCqdoJnjB7-52" edge="1">
          <mxGeometry relative="1" as="geometry" />
        </mxCell>
        <mxCell id="ylhRf2WJMnwCqdoJnjB7-74" style="edgeStyle=orthogonalEdgeStyle;rounded=0;orthogonalLoop=1;jettySize=auto;html=1;dashed=1;fillColor=#dae8fc;strokeColor=#6c8ebf;" parent="1" edge="1">
          <mxGeometry relative="1" as="geometry">
            <mxPoint x="411.4482926993535" y="693" as="targetPoint" />
            <mxPoint x="379" y="693" as="sourcePoint" />
            <Array as="points">
              <mxPoint x="404" y="693" />
              <mxPoint x="404" y="693" />
            </Array>
          </mxGeometry>
        </mxCell>
        <mxCell id="ylhRf2WJMnwCqdoJnjB7-41" value="&lt;font style=&quot;font-size: 9px;&quot;&gt;释放法术&lt;/font&gt;" style="text;html=1;align=center;verticalAlign=middle;resizable=0;points=[];autosize=1;strokeColor=none;fillColor=none;" parent="1" vertex="1">
          <mxGeometry x="306" y="680" width="54" height="26" as="geometry" />
        </mxCell>
        <mxCell id="ylhRf2WJMnwCqdoJnjB7-82" style="edgeStyle=orthogonalEdgeStyle;rounded=0;orthogonalLoop=1;jettySize=auto;html=1;entryX=0;entryY=0.25;entryDx=0;entryDy=0;curved=1;exitX=0.562;exitY=-0.006;exitDx=0;exitDy=0;exitPerimeter=0;dashed=1;fillColor=#dae8fc;strokeColor=#6c8ebf;" parent="1" source="ylhRf2WJMnwCqdoJnjB7-49" target="ylhRf2WJMnwCqdoJnjB7-80" edge="1">
          <mxGeometry relative="1" as="geometry">
            <Array as="points">
              <mxPoint x="350" y="810" />
            </Array>
          </mxGeometry>
        </mxCell>
        <mxCell id="ylhRf2WJMnwCqdoJnjB7-86" style="edgeStyle=orthogonalEdgeStyle;rounded=0;orthogonalLoop=1;jettySize=auto;html=1;entryX=0;entryY=0.5;entryDx=0;entryDy=0;curved=1;exitX=0.615;exitY=0.979;exitDx=0;exitDy=0;exitPerimeter=0;dashed=1;fillColor=#dae8fc;strokeColor=#6c8ebf;" parent="1" source="ylhRf2WJMnwCqdoJnjB7-49" target="ylhRf2WJMnwCqdoJnjB7-81" edge="1">
          <mxGeometry relative="1" as="geometry">
            <mxPoint x="360" y="865" as="sourcePoint" />
          </mxGeometry>
        </mxCell>
        <mxCell id="ylhRf2WJMnwCqdoJnjB7-49" value="&lt;font style=&quot;font-size: 9px;&quot;&gt;释放剑技&lt;/font&gt;" style="text;html=1;align=center;verticalAlign=middle;resizable=0;points=[];autosize=1;strokeColor=none;fillColor=none;" parent="1" vertex="1">
          <mxGeometry x="320" y="835" width="54" height="26" as="geometry" />
        </mxCell>
        <mxCell id="ylhRf2WJMnwCqdoJnjB7-50" value="荒芜俯冲(对地)" style="rounded=1;whiteSpace=wrap;html=1;fillColor=#d5e8d4;strokeColor=#82b366;" parent="1" vertex="1">
          <mxGeometry x="416" y="618" width="99" height="19" as="geometry" />
        </mxCell>
        <mxCell id="ylhRf2WJMnwCqdoJnjB7-51" value="复仇之魂(水平)" style="rounded=1;whiteSpace=wrap;html=1;fillColor=#d5e8d4;strokeColor=#82b366;" parent="1" vertex="1">
          <mxGeometry x="416" y="683.5" width="102" height="19" as="geometry" />
        </mxCell>
        <mxCell id="ylhRf2WJMnwCqdoJnjB7-52" value="嚎叫幽灵(对空)" style="rounded=1;whiteSpace=wrap;html=1;fillColor=#d5e8d4;strokeColor=#82b366;" parent="1" vertex="1">
          <mxGeometry x="416" y="749" width="103" height="19" as="geometry" />
        </mxCell>
        <mxCell id="ylhRf2WJMnwCqdoJnjB7-62" style="edgeStyle=orthogonalEdgeStyle;rounded=0;orthogonalLoop=1;jettySize=auto;html=1;exitX=0.5;exitY=1;exitDx=0;exitDy=0;" parent="1" source="ylhRf2WJMnwCqdoJnjB7-52" target="ylhRf2WJMnwCqdoJnjB7-52" edge="1">
          <mxGeometry relative="1" as="geometry" />
        </mxCell>
        <mxCell id="ylhRf2WJMnwCqdoJnjB7-79" value="&lt;span style=&quot;text-wrap: nowrap;&quot;&gt;梦之钉&lt;/span&gt;" style="rounded=1;whiteSpace=wrap;html=1;fillColor=#f8cecc;strokeColor=#b85450;" parent="1" vertex="1">
          <mxGeometry x="241" y="769" width="38" height="19" as="geometry" />
        </mxCell>
        <mxCell id="ylhRf2WJMnwCqdoJnjB7-80" value="蓄力斩/冲刺斩" style="rounded=1;whiteSpace=wrap;html=1;fillColor=#d5e8d4;strokeColor=#82b366;" parent="1" vertex="1">
          <mxGeometry x="418" y="805" width="99" height="19" as="geometry" />
        </mxCell>
        <mxCell id="ylhRf2WJMnwCqdoJnjB7-81" value="旋风斩" style="rounded=1;whiteSpace=wrap;html=1;fillColor=#d5e8d4;strokeColor=#82b366;" parent="1" vertex="1">
          <mxGeometry x="418" y="884" width="99" height="19" as="geometry" />
        </mxCell>
      </root>
    </mxGraphModel>
  </diagram>
</mxfile>
